<?xml version="1.0" standalone="no"?><svg xmlns="http://www.w3.org/2000/svg" viewBox="0 0 1440 320"><path fill="#008000" fill-opacity="1" d="M0,128L16,112C32,96,64,64,96,90.7C128,117,160,203,192,229.3C224,256,256,224,288,224C320,224,352,256,384,250.7C416,245,448,203,480,186.7C512,171,544,181,576,197.3C608,213,640,235,672,245.3C704,256,736,256,768,240C800,224,832,192,864,165.3C896,139,928,117,960,144C992,171,1024,245,1056,250.7C1088,256,1120,192,1152,170.7C1184,149,1216,171,1248,181.3C1280,192,1312,192,1344,170.7C1376,149,1408,107,1424,85.3L1440,64L1440,320L1424,320C1408,320,1376,320,1344,320C1312,320,1280,320,1248,320C1216,320,1184,320,1152,320C1120,320,1088,320,1056,320C1024,320,992,320,960,320C928,320,896,320,864,320C832,320,800,320,768,320C736,320,704,320,672,320C640,320,608,320,576,320C544,320,512,320,480,320C448,320,416,320,384,320C352,320,320,320,288,320C256,320,224,320,192,320C160,320,128,320,96,320C64,320,32,320,16,320L0,320Z"></path></svg>